<?xml version="1.0" encoding="UTF-8"?>
<!DOCTYPE svg PUBLIC "-//W3C//DTD SVG 1.1//EN" "http://www.w3.org/Graphics/SVG/1.1/DTD/svg11.dtd">
<!-- Creator: CorelDRAW 2017 -->
<svg xmlns="http://www.w3.org/2000/svg" xml:space="preserve" width="2.45315in" height="0.281252in" version="1.1" style="shape-rendering:geometricPrecision; text-rendering:geometricPrecision; image-rendering:optimizeQuality; fill-rule:evenodd; clip-rule:evenodd"
viewBox="0 0 744 85"
 xmlns:xlink="http://www.w3.org/1999/xlink">
 <defs>
  <style type="text/css">
   <![CDATA[
    .fil1 {fill:#F14E24}
    .fil0 {fill:#373435;fill-rule:nonzero}
   ]]>
  </style>
 </defs>
 <g id="Layer_x0020_1">
  <metadata id="CorelCorpID_0Corel-Layer"/>
  <g id="_2467493369360">
   <path class="fil0" d="M673 2l38 0c10,0 18,2 24,7 6,5 9,12 9,21 0,6 -1,11 -4,16 -3,4 -7,7 -12,10l15 29 -22 0 -14 -26 -12 0 0 26 -22 0 0 -82zm35 39c4,0 8,-1 10,-2 2,-2 4,-4 4,-8 0,-4 -1,-7 -3,-8 -2,-2 -6,-2 -10,-2l-13 0 0 21 13 0z"/>
   <path class="fil0" d="M620 85c-13,0 -23,-3 -29,-10 -7,-7 -10,-15 -10,-26l0 -47 22 0 0 48c0,5 2,10 5,12 3,3 7,4 13,4 5,0 10,-1 13,-4 3,-3 5,-7 5,-12l0 -48 22 0 0 47c0,11 -3,20 -10,26 -6,7 -16,10 -29,10z"/>
   <path class="fil0" d="M526 85c-9,0 -16,-2 -23,-5 -7,-4 -12,-9 -17,-15 -4,-6 -6,-14 -6,-22 0,-8 2,-16 6,-22 4,-6 10,-12 17,-15 7,-4 15,-5 23,-5 9,0 16,2 23,5 7,4 12,9 16,15 4,6 6,14 6,22 0,8 -2,16 -6,22 -4,6 -9,11 -16,15 -7,4 -15,5 -23,5zm0 -19c4,0 8,-1 12,-3 4,-2 6,-5 9,-8 2,-4 3,-8 3,-12 0,-5 -1,-9 -3,-12 -2,-3 -5,-6 -9,-8 -4,-2 -8,-3 -12,-3 -4,0 -9,1 -12,3 -4,2 -6,5 -9,8 -2,3 -3,8 -3,12 0,5 1,9 3,12 2,4 5,6 9,8 4,2 8,3 12,3z"/>
   <polygon class="fil0" points="428,19 404,19 404,2 474,2 474,19 450,19 450,84 428,84 "/>
   <polygon class="fil0" points="282,2 304,2 304,84 282,84 "/>
   <path class="fil0" d="M189 2l31 0c9,0 18,2 25,5 7,3 12,8 16,14 4,6 6,13 6,21 0,14 -4,24 -12,31 -8,7 -20,10 -35,10l-30 0 0 -82zm32 64c7,0 13,-2 17,-6 4,-4 6,-10 6,-17 0,-7 -2,-12 -6,-17 -4,-4 -9,-6 -16,-6l-11 0 0 47 10 0z"/>
   <path class="fil0" d="M136 85c-13,0 -23,-3 -29,-10 -7,-7 -10,-15 -10,-26l0 -47 22 0 0 48c0,5 2,10 5,12 3,3 7,4 13,4 5,0 10,-1 13,-4 3,-3 5,-7 5,-12l0 -48 22 0 0 47c0,11 -3,20 -10,26 -6,7 -16,10 -29,10z"/>
   <path class="fil0" d="M34 2l21 0 34 82 -22 0 -7 -17 -32 0 -7 17 -22 0 34 -82zm21 49l-10 -27 -11 27 21 0z"/>
   <path class="fil1" d="M356 0c24,0 44,19 44,43 0,24 -20,43 -44,43 -24,0 -44,-19 -44,-43 0,-24 20,-43 44,-43zm-16 22l35 20 -35 20 0 -41z"/>
  </g>
 </g>
</svg>
