<svg width="37" height="46" viewBox="0 0 37 46" fill="none" xmlns="http://www.w3.org/2000/svg">
<path fill-rule="evenodd" clip-rule="evenodd" d="M20.2281 38.9917C20.1475 39.1396 20.0759 39.2705 20.0156 39.375C19.342 40.5415 17.658 40.5415 16.9844 39.375C16.9241 39.2705 16.8525 39.1396 16.7719 38.9917C16.315 38.1548 15.5657 36.7812 14.8945 36.6489C6.4032 34.9717 0 27.4834 0 18.5C0 8.28271 8.28271 0 18.5 0C28.7173 0 37 8.28271 37 18.5C37 27.4834 30.5968 34.9717 22.1055 36.6489C21.4343 36.7812 20.685 38.1548 20.2281 38.9917ZM18.5 46C19.3284 46 20 45.3286 20 44.5C20 43.6714 19.3284 43 18.5 43C17.6716 43 17 43.6714 17 44.5C17 45.3286 17.6716 46 18.5 46Z" fill="#F9A937"/>
<path fill-rule="evenodd" clip-rule="evenodd" d="M15.0355 12H21.9645C21.9879 11.8369 22 11.6699 22 11.5C22 9.56689 20.433 8 18.5 8C16.567 8 15 9.56689 15 11.5C15 11.6699 15.0121 11.8369 15.0355 12ZM14.0275 12C14.0093 11.8359 14 11.6689 14 11.5C14 9.01465 16.0147 7 18.5 7C20.9853 7 23 9.01465 23 11.5C23 11.6689 22.9907 11.8359 22.9725 12H29V21H8V12H14.0275ZM8 26V23H29V26H8Z" fill="black"/>
</svg>
